<?xml version="1.0" encoding="UTF-8"?>
<svg width="1200pt" height="1200pt" version="1.1" viewBox="0 0 1200 1200" xmlns="http://www.w3.org/2000/svg">
 <path d="m1075 900c13.809 0 25 11.191 25 25v125c0 27.613-22.387 50-50 50h-125c-13.809 0-25-11.191-25-25s11.191-25 25-25h125v-125c0-13.809 11.191-25 25-25zm-400 150c13.809 0 25 11.191 25 25s-11.191 25-25 25h-150c-13.809 0-25-11.191-25-25s11.191-25 25-25zm-550-150c13.809 0 25 11.191 25 25v125h125c13.809 0 25 11.191 25 25s-11.191 25-25 25h-125c-27.613 0-50-22.387-50-50v-125c0-13.809 11.191-25 25-25zm950-400c13.809 0 25 11.191 25 25v150c0 13.809-11.191 25-25 25s-25-11.191-25-25v-150c0-13.809 11.191-25 25-25zm-950 0c13.809 0 25 11.191 25 25v150c0 13.809-11.191 25-25 25s-25-11.191-25-25v-150c0-13.809 11.191-25 25-25zm150-400c13.809 0 25 11.191 25 25s-11.191 25-25 25h-125v125c0 13.809-11.191 25-25 25s-25-11.191-25-25v-125c0-27.613 22.387-50 50-50zm775 0c27.613 0 50 22.387 50 50v125c0 13.809-11.191 25-25 25s-25-11.191-25-25v-125h-125c-13.809 0-25-11.191-25-25s11.191-25 25-25zm-375 0c13.809 0 25 11.191 25 25s-11.191 25-25 25h-150c-13.809 0-25-11.191-25-25s11.191-25 25-25z" fill-rule="evenodd"/>
</svg>
