<?xml version="1.0" encoding="UTF-8"?>
<svg width="1200pt" height="1200pt" version="1.1" viewBox="0 0 1200 1200" xmlns="http://www.w3.org/2000/svg">
 <path d="m424.27 14.258v58.57h136.67v-58.57zm429.55 0v58.57h136.68v-58.57zm-644.32 0v58.57h136.68v-58.57zm429.54 0v58.57h136.68v-58.57zm-214.77 1171.5h136.67v-58.57h-136.67zm429.55 0h136.68v-58.57h-136.68zm-644.32 0h136.68v-58.57h-136.68zm429.54 0h136.68v-58.57h-136.68zm488.12-58.57h-58.57v58.57h117.14l-0.003906-117.14h-58.57zm0-1054.3v58.57h58.57v-117.14h-117.14v58.57zm58.57 351.45h-58.57v136.67h58.57zm0 429.55h-58.57v136.68h58.57zm0-644.32h-58.57v136.68h58.57zm0 429.54h-58.57v136.68h58.57zm-1112.9 488.12v-58.57h-58.57v117.14h117.14v-58.57zm0-1054.3h58.57v-58.57h-117.14v117.14h58.57zm-58.57 351.45v136.67h58.57v-136.67zm0 429.55v136.68h58.57v-136.68zm0-644.32v136.68h58.57v-136.68zm0 429.54v136.68h58.57v-136.68z"/>
</svg>
