<?xml version="1.0" encoding="UTF-8"?>
<svg width="1200pt" height="1200pt" version="1.1" viewBox="0 0 1200 1200" xmlns="http://www.w3.org/2000/svg">
 <g>
  <path d="m1012.5 375h-825c-29.836 0-58.453 11.852-79.551 32.949-21.098 21.098-32.949 49.715-32.949 79.551v225c0 29.836 11.852 58.453 32.949 79.551 21.098 21.098 49.715 32.949 79.551 32.949h825c29.836 0 58.453-11.852 79.551-32.949 21.098-21.098 32.949-49.715 32.949-79.551v-225c0-29.836-11.852-58.453-32.949-79.551-21.098-21.098-49.715-32.949-79.551-32.949zm37.5 337.5c0 9.9453-3.9492 19.484-10.984 26.516-7.0312 7.0352-16.57 10.984-26.516 10.984h-825c-9.9453 0-19.484-3.9492-26.516-10.984-7.0352-7.0312-10.984-16.57-10.984-26.516v-225c0-9.9453 3.9492-19.484 10.984-26.516 7.0312-7.0352 16.57-10.984 26.516-10.984h825c9.9453 0 19.484 3.9492 26.516 10.984 7.0352 7.0312 10.984 16.57 10.984 26.516z"/>
  <path d="m525 262.5h150c13.398 0 25.777-7.1484 32.477-18.75 6.6992-11.602 6.6992-25.898 0-37.5-6.6992-11.602-19.078-18.75-32.477-18.75h-150c-13.398 0-25.777 7.1484-32.477 18.75-6.6992 11.602-6.6992 25.898 0 37.5 6.6992 11.602 19.078 18.75 32.477 18.75z"/>
  <path d="m900 262.5h150c13.398 0 25.777-7.1484 32.477-18.75 6.6992-11.602 6.6992-25.898 0-37.5-6.6992-11.602-19.078-18.75-32.477-18.75h-150c-13.398 0-25.777 7.1484-32.477 18.75-6.6992 11.602-6.6992 25.898 0 37.5 6.6992 11.602 19.078 18.75 32.477 18.75z"/>
  <path d="m150 262.5h150c13.398 0 25.777-7.1484 32.477-18.75 6.6992-11.602 6.6992-25.898 0-37.5-6.6992-11.602-19.078-18.75-32.477-18.75h-150c-13.398 0-25.777 7.1484-32.477 18.75-6.6992 11.602-6.6992 25.898 0 37.5 6.6992 11.602 19.078 18.75 32.477 18.75z"/>
  <path d="m675 937.5h-150c-13.398 0-25.777 7.1484-32.477 18.75-6.6992 11.602-6.6992 25.898 0 37.5 6.6992 11.602 19.078 18.75 32.477 18.75h150c13.398 0 25.777-7.1484 32.477-18.75 6.6992-11.602 6.6992-25.898 0-37.5-6.6992-11.602-19.078-18.75-32.477-18.75z"/>
  <path d="m1050 937.5h-150c-13.398 0-25.777 7.1484-32.477 18.75-6.6992 11.602-6.6992 25.898 0 37.5 6.6992 11.602 19.078 18.75 32.477 18.75h150c13.398 0 25.777-7.1484 32.477-18.75 6.6992-11.602 6.6992-25.898 0-37.5-6.6992-11.602-19.078-18.75-32.477-18.75z"/>
  <path d="m300 937.5h-150c-13.398 0-25.777 7.1484-32.477 18.75-6.6992 11.602-6.6992 25.898 0 37.5 6.6992 11.602 19.078 18.75 32.477 18.75h150c13.398 0 25.777-7.1484 32.477-18.75 6.6992-11.602 6.6992-25.898 0-37.5-6.6992-11.602-19.078-18.75-32.477-18.75z"/>
 </g>
</svg>
